<svg width="128" height="128" viewBox="0 0 128 128" fill="none" xmlns="http://www.w3.org/2000/svg">
  <defs>
    <linearGradient id="bg" x1="18" y1="13" x2="110" y2="118" gradientUnits="userSpaceOnUse">
      <stop stop-color="#FF9A2F"/>
      <stop offset="0.48" stop-color="#FF6A00"/>
      <stop offset="1" stop-color="#E94B00"/>
    </linearGradient>
    <linearGradient id="shine" x1="28" y1="19" x2="96" y2="88" gradientUnits="userSpaceOnUse">
      <stop stop-color="#FFFFFF" stop-opacity="0.42"/>
      <stop offset="1" stop-color="#FFFFFF" stop-opacity="0"/>
    </linearGradient>
    <filter id="cardShadow" x="6" y="7" width="116" height="116" filterUnits="userSpaceOnUse" color-interpolation-filters="sRGB">
      <feDropShadow dx="0" dy="8" stdDeviation="8" flood-color="#9D2F00" flood-opacity="0.28"/>
    </filter>
    <filter id="letterShadow" x="30" y="24" width="72" height="82" filterUnits="userSpaceOnUse" color-interpolation-filters="sRGB">
      <feDropShadow dx="0" dy="5" stdDeviation="4" flood-color="#B63A00" flood-opacity="0.32"/>
    </filter>
  </defs>

  <rect x="12" y="10" width="104" height="108" rx="27" fill="url(#bg)" filter="url(#cardShadow)"/>
  <path d="M20 39C20 26.3 30.3 16 43 16H86C99.3 16 110 26.7 110 40V49C89.1 50.5 67 45.4 49.1 36.3C37.1 30.1 27.5 31.4 20 39Z" fill="url(#shine)"/>
  <path d="M18 91C31 102.5 46.8 109 64.5 109H91C102 109 110 101 110 90V83C89.7 94.2 61 98.2 18 91Z" fill="#C93600" fill-opacity="0.18"/>

  <g filter="url(#letterShadow)">
    <path d="M39 31H59V78H90V96H39V31Z" fill="#FFFFFF"/>
    <path d="M59 31H74L59 48V31Z" fill="#FFE3C5"/>
  </g>

  <path d="M92 30C96.4 30 100 33.6 100 38C100 42.4 96.4 46 92 46C87.6 46 84 42.4 84 38C84 33.6 87.6 30 92 30Z" fill="#FFFFFF" fill-opacity="0.88"/>
  <path d="M93 35L96 38L93 41" stroke="#FF6A00" stroke-width="3" stroke-linecap="round" stroke-linejoin="round"/>
</svg>
