<svg width="128" height="128" viewBox="0 0 128 128" fill="none" xmlns="http://www.w3.org/2000/svg">
  <defs>
    <linearGradient id="bg" x1="18" y1="14" x2="108" y2="118" gradientUnits="userSpaceOnUse">
      <stop stop-color="#0A84FF"/>
      <stop offset="0.52" stop-color="#16A3D8"/>
      <stop offset="1" stop-color="#34C759"/>
    </linearGradient>
    <linearGradient id="beam" x1="64" y1="22" x2="106" y2="78" gradientUnits="userSpaceOnUse">
      <stop stop-color="#FFFFFF" stop-opacity="0.92"/>
      <stop offset="1" stop-color="#FFFFFF" stop-opacity="0.08"/>
    </linearGradient>
    <filter id="shadow" x="7" y="8" width="114" height="116" filterUnits="userSpaceOnUse" color-interpolation-filters="sRGB">
      <feDropShadow dx="0" dy="8" stdDeviation="8" flood-color="#003B6F" flood-opacity="0.24"/>
    </filter>
    <filter id="soft" x="22" y="20" width="84" height="88" filterUnits="userSpaceOnUse" color-interpolation-filters="sRGB">
      <feDropShadow dx="0" dy="6" stdDeviation="5" flood-color="#003B6F" flood-opacity="0.20"/>
    </filter>
  </defs>

  <rect x="12" y="10" width="104" height="108" rx="27" fill="url(#bg)" filter="url(#shadow)"/>
  <path d="M18 39C18 25.7452 28.7452 15 42 15H89C101.15 15 111 24.8497 111 37V44C91.5 45.5 68 39.5 50 30.5C36.5 23.75 25.5 27.5 18 39Z" fill="white" fill-opacity="0.16"/>

  <g filter="url(#soft)">
    <circle cx="64" cy="64" r="38" stroke="white" stroke-opacity="0.42" stroke-width="5"/>
    <circle cx="64" cy="64" r="25" stroke="white" stroke-opacity="0.30" stroke-width="4"/>
    <circle cx="64" cy="64" r="10" fill="white"/>
    <path d="M64 64L98 45C104.6 56.8 104.5 71.3 97.7 83L64 64Z" fill="url(#beam)"/>
    <path d="M64 64L94 32" stroke="white" stroke-width="6" stroke-linecap="round"/>
  </g>

  <g>
    <path d="M42 80L54 88C58.9 91.3 65.5 90 68.8 85.1L70 83.3" stroke="white" stroke-width="7" stroke-linecap="round"/>
    <path d="M86 49L74 41C69.1 37.7 62.5 39 59.2 43.9L58 45.7" stroke="white" stroke-width="7" stroke-linecap="round"/>
    <path d="M54 62L74 66" stroke="white" stroke-opacity="0.9" stroke-width="7" stroke-linecap="round"/>
  </g>

  <circle cx="94" cy="32" r="8" fill="#FFFFFF"/>
  <circle cx="94" cy="32" r="3.5" fill="#0A84FF"/>
  <circle cx="34" cy="50" r="5" fill="white" fill-opacity="0.86"/>
  <circle cx="91" cy="92" r="6" fill="white" fill-opacity="0.88"/>
</svg>
